<svg width="414" height="114" viewBox="0 0 414 114" fill="none" xmlns="http://www.w3.org/2000/svg">
<g filter="url(#filter0_d_1_36)">
<ellipse cx="207" cy="53" rx="200" ry="50" fill="url(#paint0_linear_1_36)"/>
<ellipse cx="207" cy="53" rx="200" ry="50" stroke="#B6B6B6" stroke-width="5" stroke-linecap="round" stroke-linejoin="round" stroke-dasharray="10 10"/>
</g>
<path d="M214.055 20.0088C215.427 20.0189 216.793 20.0402 218.15 20.0703L218.129 21.0674C219.496 21.0977 220.856 21.1382 222.207 21.1885L222.243 20.1904C223.615 20.2415 224.979 20.3019 226.333 20.373L226.282 21.3721C227.651 21.444 229.01 21.5261 230.359 21.6182L230.427 20.6221C231.8 20.7159 233.163 20.8205 234.515 20.9346L234.432 21.9287C235.799 22.0441 237.154 22.1699 238.497 22.3057L238.597 21.3125C239.967 21.4511 241.326 21.5986 242.67 21.7578L242.554 22.751C243.917 22.9124 245.266 23.0844 246.601 23.2666L246.735 22.2754C248.102 22.462 249.454 22.6604 250.789 22.8682L250.637 23.8555C251.995 24.0668 253.336 24.2889 254.659 24.5215L254.832 23.5381C256.194 23.7775 257.537 24.0279 258.86 24.2891L258.667 25.2686C260.018 25.5352 261.348 25.8129 262.656 26.1016L262.871 25.127C264.225 25.4257 265.556 25.7341 266.862 26.0557L266.624 27.0273C267.964 27.3572 269.278 27.6979 270.564 28.0508L270.828 27.0869C272.169 27.4548 273.481 27.8366 274.762 28.2285L274.47 29.1826C275.791 29.5869 277.079 30.004 278.332 30.4326L278.655 29.4883C279.976 29.9401 281.259 30.405 282.502 30.8828L282.145 31.8145C283.444 32.314 284.699 32.8276 285.906 33.3535L286.304 32.4385C287.594 33.0003 288.832 33.578 290.017 34.1689L289.572 35.0605C290.818 35.6823 292.002 36.3187 293.119 36.9688L293.621 36.1055C294.852 36.8213 296.007 37.5541 297.082 38.3037L296.511 39.124C297.66 39.9251 298.711 40.7422 299.66 41.5723L300.317 40.8193C301.402 41.7673 302.363 42.7368 303.195 43.7256L302.432 44.3701C303.32 45.4262 304.045 46.4944 304.604 47.5703L305.49 47.1094C306.144 48.3701 306.591 49.6558 306.82 50.9619L305.837 51.1348C305.945 51.7526 306 52.3744 306 53C306 53.6257 305.945 54.2474 305.837 54.8652L306.82 55.0371C306.591 56.3433 306.144 57.6288 305.49 58.8896L304.604 58.4297C304.045 59.5056 303.32 60.5738 302.432 61.6299L303.195 62.2734C302.363 63.2622 301.402 64.2317 300.317 65.1797L299.66 64.4277C298.711 65.2578 297.66 66.0749 296.511 66.876L297.082 67.6953C296.007 68.4449 294.852 69.1777 293.621 69.8936L293.119 69.0312C292.002 69.6813 290.818 70.3177 289.572 70.9395L290.017 71.8301C288.832 72.421 287.594 72.9987 286.304 73.5605L285.906 72.6465C284.699 73.1724 283.444 73.686 282.145 74.1855L282.502 75.1162C281.259 75.594 279.976 76.0589 278.655 76.5107L278.332 75.5674C277.079 75.996 275.791 76.4131 274.47 76.8174L274.762 77.7705C273.48 78.1626 272.169 78.5442 270.827 78.9121L270.564 77.9492C269.278 78.3021 267.964 78.6428 266.624 78.9727L266.862 79.9434C265.556 80.2649 264.225 80.5733 262.871 80.8721L262.656 79.8984C261.348 80.1871 260.018 80.4648 258.667 80.7314L258.86 81.71C257.537 81.9711 256.194 82.2216 254.832 82.4609L254.659 81.4785C253.336 81.7111 251.995 81.9332 250.637 82.1445L250.789 83.1309C249.454 83.3386 248.102 83.537 246.735 83.7236L246.601 82.7334C245.266 82.9156 243.917 83.0876 242.554 83.249L242.67 84.2412C241.326 84.4004 239.967 84.5479 238.597 84.6865L238.497 83.6943C237.154 83.8301 235.799 83.9559 234.432 84.0713L234.515 85.0645C233.163 85.1786 231.8 85.2832 230.427 85.377L230.359 84.3818C229.01 84.4739 227.651 84.556 226.282 84.6279L226.333 85.626C224.979 85.6972 223.615 85.7575 222.243 85.8086L222.207 84.8115C220.856 84.8618 219.496 84.9023 218.129 84.9326L218.15 85.9287C216.793 85.9588 215.427 85.9801 214.055 85.9902L214.049 84.9922C213.368 84.9972 212.685 85 212 85C211.315 85 210.632 84.9972 209.951 84.9922L209.944 85.9902C208.572 85.9801 207.206 85.9589 205.849 85.9287L205.871 84.9326C204.504 84.9023 203.144 84.8618 201.793 84.8115L201.756 85.8086C200.384 85.7575 199.02 85.6972 197.666 85.626L197.718 84.6279C196.349 84.556 194.99 84.4739 193.641 84.3818L193.572 85.377C192.199 85.2832 190.836 85.1786 189.484 85.0645L189.568 84.0713C188.201 83.9559 186.846 83.8301 185.503 83.6943L185.402 84.6865C184.032 84.5479 182.673 84.4004 181.329 84.2412L181.446 83.249C180.083 83.0876 178.734 82.9156 177.399 82.7334L177.264 83.7236C175.897 83.537 174.545 83.3386 173.21 83.1309L173.363 82.1445C172.005 81.9332 170.664 81.7111 169.341 81.4785L169.167 82.4609C167.805 82.2215 166.462 81.9711 165.139 81.71L165.333 80.7314C163.982 80.4648 162.652 80.1871 161.344 79.8984L161.128 80.8721C159.774 80.5733 158.443 80.2649 157.137 79.9434L157.376 78.9727C156.036 78.6428 154.722 78.3021 153.436 77.9492L153.171 78.9121C151.83 78.5442 150.518 78.1625 149.237 77.7705L149.53 76.8174C148.209 76.4131 146.921 75.996 145.668 75.5674L145.344 76.5107C144.023 76.0589 142.74 75.5941 141.497 75.1162L141.855 74.1855C140.556 73.686 139.301 73.1724 138.094 72.6465L137.695 73.5605C136.405 72.9987 135.167 72.421 133.982 71.8301L134.428 70.9395C133.182 70.3177 131.998 69.6813 130.881 69.0312L130.378 69.8936C129.147 69.1777 127.992 68.445 126.917 67.6953L127.489 66.876C126.34 66.0749 125.289 65.2578 124.34 64.4277L123.682 65.1797C122.597 64.2317 121.636 63.2622 120.804 62.2734L121.568 61.6299C120.68 60.5738 119.955 59.5056 119.396 58.4297L118.509 58.8896C117.855 57.6289 117.408 56.3432 117.179 55.0371L118.163 54.8652C118.055 54.2474 118 53.6256 118 53C118 52.3743 118.055 51.7526 118.163 51.1348L117.179 50.9619C117.408 49.6558 117.855 48.37 118.509 47.1094L119.396 47.5703C119.955 46.4944 120.68 45.4262 121.568 44.3701L120.804 43.7256C121.636 42.7368 122.597 41.7673 123.682 40.8193L124.34 41.5723C125.289 40.7422 126.34 39.9251 127.489 39.124L126.917 38.3037C127.992 37.5541 129.147 36.8213 130.378 36.1055L130.881 36.9688C131.998 36.3187 133.182 35.6823 134.428 35.0605L133.982 34.1689C135.167 33.578 136.405 33.0004 137.695 32.4385L138.094 33.3535C139.301 32.8276 140.556 32.314 141.855 31.8145L141.497 30.8828C142.74 30.405 144.023 29.9401 145.344 29.4883L145.668 30.4326C146.921 30.004 148.209 29.5869 149.53 29.1826L149.237 28.2285C150.519 27.8365 151.83 27.4549 153.172 27.0869L153.436 28.0508C154.722 27.6979 156.036 27.3572 157.376 27.0273L157.137 26.0557C158.443 25.7341 159.774 25.4257 161.128 25.127L161.344 26.1016C162.652 25.8129 163.982 25.5352 165.333 25.2686L165.139 24.2891C166.462 24.0279 167.805 23.7775 169.167 23.5381L169.341 24.5215C170.664 24.2889 172.005 24.0668 173.363 23.8555L173.21 22.8682C174.545 22.6604 175.897 22.462 177.264 22.2754L177.399 23.2666C178.734 23.0844 180.083 22.9124 181.446 22.751L181.329 21.7578C182.673 21.5986 184.032 21.4511 185.402 21.3125L185.503 22.3057C186.846 22.1699 188.201 22.0441 189.568 21.9287L189.484 20.9346C190.836 20.8205 192.199 20.7159 193.572 20.6221L193.641 21.6182C194.99 21.5261 196.349 21.444 197.718 21.3721L197.666 20.373C199.02 20.3019 200.384 20.2415 201.756 20.1904L201.793 21.1885C203.144 21.1382 204.504 21.0977 205.871 21.0674L205.849 20.0703C207.206 20.0402 208.572 20.0189 209.944 20.0088L209.951 21.0078C210.632 21.0028 211.315 21 212 21C212.685 21 213.368 21.0028 214.049 21.0078L214.055 20.0088Z" fill="url(#paint1_linear_1_36)" stroke="#B6B6B6" stroke-width="2" stroke-linejoin="round" stroke-dasharray="4 4"/>
<path d="M307 53L282 38.5662V67.4338L307 53ZM284.5 53V50.5L7 50.5V53V55.5L284.5 55.5V53Z" fill="#B6B6B6"/>
<defs>
<filter id="filter0_d_1_36" x="0.5" y="0.5" width="413" height="113" filterUnits="userSpaceOnUse" color-interpolation-filters="sRGB">
<feFlood flood-opacity="0" result="BackgroundImageFix"/>
<feColorMatrix in="SourceAlpha" type="matrix" values="0 0 0 0 0 0 0 0 0 0 0 0 0 0 0 0 0 0 127 0" result="hardAlpha"/>
<feOffset dy="4"/>
<feGaussianBlur stdDeviation="2"/>
<feComposite in2="hardAlpha" operator="out"/>
<feColorMatrix type="matrix" values="0 0 0 0 0 0 0 0 0 0 0 0 0 0 0 0 0 0 1 0"/>
<feBlend mode="normal" in2="BackgroundImageFix" result="effect1_dropShadow_1_36"/>
<feBlend mode="normal" in="SourceGraphic" in2="effect1_dropShadow_1_36" result="shape"/>
</filter>
<linearGradient id="paint0_linear_1_36" x1="7" y1="53" x2="407" y2="53" gradientUnits="userSpaceOnUse">
<stop stop-color="#CCF3FF"/>
<stop offset="1" stop-color="#75C3DB"/>
</linearGradient>
<linearGradient id="paint1_linear_1_36" x1="307" y1="53" x2="117" y2="53" gradientUnits="userSpaceOnUse">
<stop stop-color="#D47878"/>
<stop offset="1" stop-color="#6E3E3E"/>
</linearGradient>
</defs>
</svg>
